

<svg version="1.0" xmlns="http://www.w3.org/2000/svg"
 width="1247.000000pt" height="393.000000pt" viewBox="0 0 1247.000000 393.000000"
 preserveAspectRatio="xMidYMid meet">

<g transform="translate(0.000000,393.000000) scale(0.100000,-0.100000)"
fill="#003362" stroke="none">
<path d="M200 3142 l0 -788 -52 -17 c-51 -17 -154 -63 -113 -52 96 28 173 38
300 38 172 -1 287 -27 440 -102 121 -58 197 -115 296 -218 121 -128 193 -253
245 -428 36 -121 45 -340 19 -466 -41 -205 -129 -371 -275 -519 -150 -153
-287 -233 -485 -285 -147 -38 -351 -38 -495 0 -30 8 -56 13 -57 11 -2 -2 37
-19 87 -37 l90 -34 0 -122 0 -123 296 0 c294 0 296 0 283 20 -8 11 -42 58 -76
104 l-62 84 64 11 c147 26 291 85 423 174 77 52 82 54 87 34 6 -28 75 -414 75
-422 0 -3 646 -5 1435 -5 l1435 0 0 1965 0 1965 -1980 0 -1980 0 0 -788z
m3130 133 c-40 -69 -76 -127 -80 -130 -7 -4 -150 188 -144 194 5 6 288 69 293
65 2 -2 -29 -60 -69 -129z m-2630 -478 c51 -230 90 -421 87 -424 -4 -3 -37 1
-74 8 -41 9 -130 14 -225 14 -87 -1 -158 1 -158 5 -1 3 59 195 132 427 78 249
135 415 139 405 3 -9 48 -205 99 -435z m1723 -109 c-11 -13 -210 -243 -443
-513 -233 -269 -426 -491 -430 -493 -4 -1 -20 28 -35 64 -46 108 -140 241
-238 339 -49 49 -86 91 -81 92 5 2 286 123 624 268 338 145 617 264 619 264 3
1 -5 -9 -16 -21z m-414 -1679 l384 -224 -269 -3 c-148 -2 -351 0 -452 3 -165
7 -183 9 -176 24 56 129 88 243 110 394 3 21 8 36 12 34 4 -2 180 -105 391
-228z"/>
<path d="M6052 3130 c-240 -34 -423 -183 -485 -397 -60 -201 -8 -411 138 -559
126 -128 283 -181 504 -172 247 11 424 116 522 310 56 112 74 253 48 380 -42
202 -213 374 -420 422 -82 20 -226 27 -307 16z m224 -149 c92 -18 159 -50 220
-105 173 -156 181 -437 18 -600 -88 -88 -197 -127 -353 -127 -154 0 -265 43
-350 136 -178 193 -120 534 110 651 96 48 241 66 355 45z"/>
<path d="M4480 3090 c0 -20 6 -33 18 -37 9 -4 20 -11 24 -17 4 -6 8 -219 8
-474 l0 -462 -25 -12 c-18 -8 -25 -19 -25 -40 l0 -28 125 0 125 0 0 30 c0 17
-4 30 -9 30 -5 0 -17 7 -25 16 -13 13 -16 46 -16 205 l0 189 178 0 c264 1 363
12 441 52 104 53 151 137 151 269 0 165 -95 271 -270 299 -36 5 -208 10 -382
10 l-318 0 0 -30z m737 -138 c56 -29 77 -70 78 -149 0 -67 -15 -97 -69 -137
-26 -20 -43 -21 -287 -24 l-259 -3 0 164 c0 90 3 167 8 171 4 4 115 6 247 4
225 -3 243 -5 282 -26z"/>
<path d="M6940 3091 c0 -21 6 -34 18 -38 9 -4 20 -11 24 -17 4 -6 8 -219 8
-474 l0 -462 -25 -12 c-18 -8 -25 -19 -25 -40 l0 -28 125 0 125 0 0 29 c0 20
-6 32 -19 36 -28 8 -31 32 -31 226 l0 176 248 6 c268 6 330 16 402 63 43 29
92 96 111 151 7 21 10 71 7 122 -3 72 -9 95 -31 133 -34 59 -87 102 -157 130
-52 21 -73 22 -417 26 l-363 4 0 -31z m738 -139 c57 -30 86 -92 80 -164 -5
-52 -27 -89 -72 -122 -26 -20 -43 -21 -287 -24 l-259 -3 0 164 c0 90 3 167 8
171 4 4 115 6 247 4 227 -3 242 -5 283 -26z"/>
<path d="M8010 3091 c0 -19 8 -34 23 -43 l22 -15 5 -399 5 -399 27 -51 c67
-126 205 -184 441 -184 198 0 311 33 392 114 87 87 88 90 93 539 4 369 5 388
23 397 12 7 19 21 19 40 l0 30 -120 0 -120 0 0 -30 c0 -23 6 -33 25 -40 l26
-10 -3 -384 c-3 -370 -4 -386 -24 -412 -53 -71 -126 -94 -304 -94 -179 -1
-267 29 -308 103 -15 28 -17 74 -20 404 l-3 372 25 16 c18 12 26 26 26 46 l0
29 -125 0 -125 0 0 -29z"/>
<path d="M9220 3094 c0 -16 11 -36 25 -50 l25 -23 0 -455 c0 -400 -2 -456 -16
-470 -8 -9 -20 -16 -25 -16 -5 0 -9 -13 -9 -30 l0 -30 428 -2 427 -3 10 -22
c7 -17 18 -23 42 -23 l33 0 0 120 0 120 -34 0 c-28 0 -35 -4 -38 -22 l-3 -23
-332 -3 -333 -2 0 432 c0 238 4 438 8 444 4 6 15 13 25 17 11 4 17 17 17 37
l0 30 -125 0 -125 0 0 -26z"/>
<path d="M10640 3090 c0 -18 6 -33 15 -36 8 -4 15 -11 15 -18 0 -6 -92 -218
-203 -471 -188 -426 -205 -461 -235 -475 -24 -11 -32 -22 -32 -42 l0 -28 135
0 135 0 0 30 c0 20 -5 30 -15 30 -30 0 -26 28 18 126 l43 99 260 3 260 2 46
-107 47 -108 -24 -9 c-18 -7 -25 -17 -25 -38 l0 -28 140 0 140 0 0 30 c0 23
-5 31 -25 36 -16 4 -33 21 -46 45 -25 49 -389 878 -396 902 -4 11 0 17 11 17
12 0 16 9 16 35 l0 35 -140 0 -140 0 0 -30z m238 -415 l91 -210 -186 -3 c-102
-1 -188 0 -191 3 -3 2 37 101 88 220 52 118 97 212 101 208 4 -5 48 -102 97
-218z"/>
<path d="M11420 3090 c0 -20 6 -33 18 -37 9 -4 20 -11 24 -17 4 -6 8 -219 8
-474 l0 -462 -25 -12 c-18 -8 -25 -19 -25 -40 l0 -28 125 0 125 0 0 29 c0 20
-6 32 -19 36 -28 8 -31 32 -31 228 l0 177 182 -2 182 -3 118 -195 c65 -107
118 -198 118 -202 0 -4 -7 -8 -15 -8 -10 0 -15 -10 -15 -30 l0 -30 135 0 135
0 0 28 c0 21 -7 30 -28 38 -22 8 -55 54 -145 201 -64 105 -117 195 -119 202
-2 6 20 20 49 30 114 39 181 112 204 219 29 144 -38 287 -162 341 -75 33 -166
41 -511 41 l-328 0 0 -30z m765 -140 c60 -30 85 -73 85 -145 0 -69 -26 -115
-80 -142 -43 -22 -54 -23 -307 -23 l-263 0 0 163 c0 90 3 167 8 171 4 4 120 6
257 4 243 -3 251 -4 300 -28z"/>
<path d="M4534 1800 c-46 -18 -68 -85 -44 -130 5 -10 38 -35 72 -56 86 -51 98
-63 98 -95 0 -39 -38 -63 -84 -55 -36 7 -64 32 -83 74 -10 24 -11 21 -12 -37
-1 -54 1 -62 13 -52 11 9 25 9 57 1 58 -16 103 -5 133 31 50 60 27 114 -71
169 -32 18 -66 39 -75 48 -43 37 1 102 59 87 35 -8 73 -43 73 -66 0 -10 5 -21
10 -24 6 -4 10 17 10 56 0 53 -2 60 -15 49 -11 -9 -22 -9 -46 -1 -37 13 -65
13 -95 1z"/>
<path d="M4870 1788 c-114 -61 -126 -243 -21 -315 149 -101 328 65 252 233
-41 91 -145 127 -231 82z m139 -24 c33 -28 51 -76 51 -139 0 -98 -48 -165
-117 -165 -90 0 -142 162 -87 272 31 62 101 76 153 32z"/>
<path d="M5296 1800 c-37 -12 -85 -56 -102 -97 -18 -41 -18 -124 0 -166 32
-78 126 -115 211 -82 25 9 54 29 65 45 30 42 24 45 -14 7 -40 -40 -82 -51
-133 -34 -68 23 -101 102 -83 199 8 41 18 60 46 87 33 30 41 33 81 28 49 -5
79 -27 99 -72 13 -29 13 -28 14 35 0 59 -1 63 -16 48 -14 -14 -20 -14 -50 -2
-37 16 -74 17 -118 4z"/>
<path d="M6647 1803 c-4 -6 -36 -80 -72 -164 -36 -85 -75 -162 -86 -171 -21
-18 -20 -18 37 -17 46 0 54 2 37 9 -27 11 -28 27 -9 75 15 35 15 35 81 35 l66
0 19 -42 c20 -43 20 -43 -1 -60 -21 -17 -19 -18 52 -18 66 0 71 2 49 13 -19 9
-40 50 -92 172 -37 88 -69 164 -71 170 -2 5 -6 4 -10 -2z m12 -125 c39 -91 39
-88 -24 -88 -42 0 -56 3 -52 13 33 80 50 117 54 117 2 0 12 -19 22 -42z"/>
<path d="M7530 1654 c-36 -86 -75 -167 -87 -180 l-22 -24 57 1 c44 0 52 2 35
9 -27 11 -28 27 -9 75 15 35 15 35 80 35 62 0 66 -1 81 -30 20 -38 19 -67 -2
-79 -14 -8 1 -10 57 -11 67 0 72 2 50 13 -19 10 -40 50 -95 180 -38 92 -72
167 -75 167 -3 0 -34 -70 -70 -156z m79 22 c39 -89 39 -86 -24 -86 -42 0 -56
3 -52 13 32 76 50 117 53 117 2 0 12 -20 23 -44z"/>
<path d="M9568 1794 c-33 -17 -48 -43 -48 -80 0 -31 53 -85 123 -126 26 -15
53 -39 59 -54 11 -24 10 -29 -17 -51 -22 -20 -36 -24 -63 -20 -42 7 -61 23
-79 65 -7 17 -15 32 -18 32 -3 0 -5 -28 -5 -61 0 -52 2 -60 14 -50 11 9 25 9
57 1 88 -24 159 16 159 88 0 45 -23 70 -116 126 -78 46 -90 70 -54 106 39 39
106 12 135 -54 13 -31 13 -30 14 33 1 55 -1 62 -14 51 -11 -9 -22 -9 -46 -1
-42 15 -68 13 -101 -5z"/>
<path d="M10646 1692 c-78 -185 -98 -223 -120 -232 -15 -6 -1 -9 44 -9 47 0
59 3 44 9 -33 13 -34 22 -14 68 l19 43 68 -3 68 -3 15 -43 c14 -41 14 -44 -4
-58 -18 -13 -12 -14 55 -14 66 0 71 2 49 13 -19 10 -41 50 -95 180 -38 91 -72
167 -75 167 -3 0 -27 -53 -54 -118z m63 -16 c39 -89 39 -86 -23 -86 -31 0 -56
2 -56 4 0 8 52 126 56 126 2 0 12 -20 23 -44z"/>
<path d="M11446 1800 c-66 -20 -116 -95 -116 -175 0 -155 165 -240 277 -142
44 38 63 82 63 141 0 129 -105 211 -224 176z m103 -25 c40 -20 61 -71 61 -149
0 -82 -19 -130 -59 -150 -87 -46 -161 22 -161 147 0 129 71 198 159 152z"/>
<path d="M12200 1654 c-36 -86 -75 -167 -87 -180 l-22 -24 57 1 c44 0 52 2 35
9 -27 11 -28 27 -9 75 15 35 15 35 80 35 62 0 66 -1 81 -30 20 -38 19 -67 -2
-79 -14 -8 1 -10 57 -11 67 0 72 2 50 13 -19 10 -40 50 -95 180 -38 92 -72
167 -75 167 -3 0 -34 -70 -70 -156z m79 22 c39 -89 39 -86 -24 -86 -42 0 -56
3 -52 13 32 76 50 117 53 117 2 0 12 -20 23 -44z"/>
<path d="M5563 1788 l27 -10 -2 -156 -3 -156 -25 -7 c-15 -4 6 -7 55 -8 71 -1
77 1 55 12 -25 13 -25 13 -25 162 0 149 0 149 25 162 22 11 16 13 -55 12 -66
0 -75 -2 -52 -11z"/>
<path d="M5750 1791 l25 -7 0 -159 0 -159 -25 -7 c-14 -4 37 -7 113 -8 152 -1
140 -6 162 69 6 21 2 19 -25 -13 -32 -38 -33 -38 -99 -35 l-66 3 -3 73 -3 72
60 0 c56 0 60 -2 69 -27 9 -24 10 -18 10 37 0 36 -2 58 -5 50 -10 -27 -36 -40
-85 -40 l-48 0 0 70 0 71 73 -3 c64 -3 73 -6 82 -25 14 -33 22 -28 17 12 l-4
35 -137 -1 c-75 -1 -125 -4 -111 -8z"/>
<path d="M6090 1792 l25 -8 0 -159 0 -159 -25 -7 c-14 -4 25 -7 85 -8 96 -1
117 2 155 22 64 32 84 65 88 145 3 57 0 72 -20 101 -47 69 -66 76 -206 78 -70
1 -116 -1 -102 -5z m201 -27 c46 -24 69 -70 69 -140 0 -101 -50 -155 -145
-155 l-45 0 0 148 c0 82 3 152 7 155 12 13 84 7 114 -8z"/>
<path d="M6890 1792 l25 -8 0 -159 0 -159 -25 -7 c-14 -4 25 -7 85 -8 96 -1
117 2 155 22 64 32 84 65 88 145 3 57 0 72 -20 101 -47 69 -66 76 -206 78 -70
1 -116 -1 -102 -5z m201 -27 c46 -24 69 -70 69 -140 0 -101 -50 -155 -145
-155 l-45 0 0 148 c0 82 3 152 7 155 12 13 84 7 114 -8z"/>
<path d="M7840 1792 l25 -8 0 -154 0 -154 -25 -13 c-22 -11 -10 -13 85 -13 95
0 117 3 155 23 64 32 84 65 88 145 3 57 0 72 -20 101 -47 69 -66 76 -206 78
-70 1 -116 -1 -102 -5z m201 -27 c46 -24 69 -70 69 -140 0 -101 -50 -155 -145
-155 l-45 0 0 148 c0 82 3 152 7 155 12 13 84 7 114 -8z"/>
<path d="M8240 1787 c25 -13 25 -13 25 -162 0 -149 0 -149 -25 -162 -23 -12
-19 -13 40 -13 59 0 63 1 40 13 -24 12 -25 15 -28 142 -1 77 1 126 6 120 5 -6
35 -66 66 -135 32 -69 61 -128 65 -133 4 -4 34 50 66 120 32 71 62 135 66 143
5 9 8 -42 6 -120 -2 -134 -2 -134 -27 -141 -15 -4 6 -7 55 -8 71 -1 77 1 55
12 -25 13 -25 13 -25 162 0 149 0 149 25 162 23 12 21 13 -28 11 l-53 -3 -58
-128 c-32 -70 -60 -130 -63 -132 -2 -3 -32 55 -65 128 l-61 132 -53 3 c-50 2
-52 1 -29 -11z"/>
<path d="M8730 1791 l25 -7 0 -159 0 -159 -25 -7 c-15 -4 6 -7 55 -8 71 -1 77
1 55 12 -25 13 -25 13 -25 162 0 149 0 149 25 162 22 11 16 13 -55 12 -49 -1
-70 -4 -55 -8z"/>
<path d="M8916 1786 c17 -8 34 -21 38 -31 10 -26 7 -241 -3 -269 -6 -13 -18
-26 -28 -29 -10 -3 11 -5 47 -5 41 0 56 3 40 7 -25 7 -25 8 -28 136 -1 74 1
125 6 120 5 -6 58 -70 118 -144 l109 -134 5 174 5 173 25 7 c16 5 2 7 -40 7
-36 0 -58 -2 -50 -5 33 -12 40 -36 40 -140 0 -57 -3 -103 -7 -103 -5 0 -53 56
-108 125 l-100 124 -50 0 -50 0 31 -13z"/>
<path d="M9330 1787 c24 -12 25 -15 28 -142 3 -150 0 -173 -31 -185 -15 -6 1
-9 58 -8 48 0 70 3 55 7 l-25 7 0 159 0 159 25 7 c15 4 -6 7 -55 8 -71 1 -77
-1 -55 -12z"/>
<path d="M9821 1758 c0 -39 1 -41 10 -18 13 32 26 40 72 40 l37 0 0 -143 c0
-145 -5 -168 -40 -180 -8 -3 21 -5 65 -5 48 0 70 3 55 7 l-25 7 -3 157 -3 157
34 0 c36 0 58 -13 75 -45 10 -17 11 -14 12 23 l0 42 -145 0 -145 0 1 -42z"/>
<path d="M10170 1788 c25 -14 25 -14 25 -163 0 -149 0 -149 -25 -162 -22 -11
-16 -13 55 -12 48 1 70 4 55 8 -23 6 -25 12 -28 79 -3 66 -1 72 17 72 13 0 38
-26 76 -80 l56 -80 52 0 52 1 -31 13 c-18 8 -54 43 -83 81 -48 65 -55 85 -27
85 7 0 22 10 34 23 31 33 29 87 -4 118 -23 22 -35 24 -137 27 -98 2 -109 1
-87 -10z m170 -28 c30 -30 27 -83 -6 -109 -15 -12 -40 -21 -55 -21 l-29 0 0
75 0 75 35 0 c22 0 43 -8 55 -20z"/>
<path d="M10940 1788 c25 -14 25 -14 25 -163 0 -149 0 -149 -25 -162 -22 -11
-10 -13 85 -13 128 0 177 17 216 71 33 46 35 163 3 205 -46 62 -65 69 -202 72
-110 3 -124 1 -102 -10z m200 -23 c45 -23 70 -73 70 -141 0 -100 -51 -154
-145 -154 l-45 0 0 148 c0 82 3 152 7 155 12 12 83 7 113 -8z"/>
<path d="M11740 1788 c25 -14 25 -14 25 -163 0 -149 0 -149 -25 -162 -22 -11
-16 -13 55 -12 48 1 70 4 55 8 -23 6 -25 12 -28 79 -3 66 -1 72 17 72 13 0 39
-26 77 -80 l58 -80 50 0 51 1 -31 13 c-28 13 -60 47 -113 124 -21 30 -21 32
-4 39 65 23 85 99 37 144 -23 22 -35 24 -137 27 -98 2 -109 1 -87 -10z m169
-26 c33 -26 31 -79 -3 -109 -15 -13 -40 -23 -57 -23 l-29 0 0 75 0 75 34 0
c19 0 44 -8 55 -18z"/>
<path d="M219 1502 c-160 -83 -158 -325 3 -408 16 -8 51 -18 78 -21 102 -12
193 39 236 131 94 201 -119 401 -317 298z"/>
<path d="M11651 1339 c-7 -23 -11 -43 -9 -45 2 -2 21 17 42 41 l37 45 -29 0
c-25 0 -30 -5 -41 -41z"/>
<path d="M4478 1259 c21 -12 22 -16 22 -169 0 -153 -1 -157 -22 -168 -19 -9
-9 -11 53 -11 178 -2 262 43 276 147 8 58 -4 107 -34 142 -42 50 -73 60 -201
66 -93 3 -112 2 -94 -7z m206 -38 c76 -43 89 -179 24 -248 -28 -30 -81 -46
-124 -39 l-34 7 0 149 0 149 28 4 c37 5 71 -2 106 -22z"/>
<path d="M4913 1254 l27 -15 0 -149 0 -149 -27 -15 c-26 -14 -18 -15 110 -16
152 0 139 -5 162 70 6 22 4 21 -23 -10 -29 -34 -32 -35 -98 -35 l-69 0 -3 78
-3 78 58 -3 c50 -3 59 -6 70 -28 12 -23 13 -19 13 40 0 59 -1 63 -13 40 -11
-22 -20 -25 -70 -28 l-57 -3 0 71 0 70 53 0 c73 0 96 -9 103 -36 3 -13 11 -24
16 -24 6 0 7 7 4 16 -3 9 -6 27 -6 40 l0 24 -137 0 c-128 -1 -136 -2 -110 -16z"/>
<path d="M5463 1254 l28 -15 -3 -152 c-3 -150 -3 -152 -28 -164 -22 -11 -16
-13 55 -12 77 0 79 0 52 15 -27 15 -28 17 -25 87 3 67 5 72 27 75 38 6 71 -7
81 -31 7 -17 9 -8 9 38 1 57 0 58 -15 37 -12 -17 -25 -22 -60 -22 l-45 0 3 68
3 67 59 0 c52 -1 61 -4 83 -30 l24 -30 -3 40 -3 40 -135 2 c-126 2 -133 1
-107 -13z"/>
<path d="M5892 1253 c-18 -9 -45 -32 -60 -51 -24 -31 -27 -44 -27 -113 0 -63
4 -83 21 -106 37 -50 81 -73 141 -73 65 0 103 18 140 67 25 33 28 44 28 114 0
86 -14 115 -75 157 -40 27 -119 30 -168 5z m152 -33 c31 -37 40 -80 34 -166
-3 -56 -8 -69 -35 -96 -25 -24 -40 -31 -72 -31 -72 0 -111 57 -111 162 0 110
35 161 111 161 40 0 51 -4 73 -30z"/>
<path d="M6213 1264 c4 -4 17 -12 29 -18 22 -11 23 -17 26 -162 2 -148 2 -151
-20 -162 -19 -9 -12 -11 42 -11 49 0 59 3 42 9 -31 13 -33 22 -30 149 l3 114
115 -139 115 -139 5 168 c5 167 5 169 30 182 23 13 21 14 -40 14 -63 0 -64 0
-37 -15 l27 -15 0 -114 c0 -63 -2 -115 -4 -115 -3 0 -53 59 -111 130 l-107
130 -46 0 c-25 0 -42 -3 -39 -6z"/>
<path d="M6677 1259 c29 -15 33 -35 33 -169 0 -134 -4 -154 -33 -168 -17 -8
-5 -11 60 -11 150 -2 228 30 259 106 21 49 17 122 -9 167 -34 60 -74 76 -213
82 -93 3 -114 2 -97 -7z m211 -36 c57 -35 82 -146 47 -213 -29 -55 -102 -92
-154 -75 -20 6 -21 13 -21 155 0 146 0 149 23 153 32 5 79 -3 105 -20z"/>
<path d="M7185 1247 c-105 -58 -112 -238 -12 -311 18 -13 48 -21 90 -24 52 -3
67 0 96 20 116 79 116 238 2 315 -46 31 -121 31 -176 0z m158 -25 c64 -67 53
-247 -17 -280 -42 -20 -58 -21 -92 -7 -87 36 -103 243 -23 299 38 26 101 21
132 -12z"/>
<path d="M7581 1244 c-23 -19 -31 -34 -31 -59 0 -44 27 -75 106 -121 69 -40
91 -71 74 -103 -11 -22 -32 -31 -71 -31 -45 0 -69 17 -90 63 l-19 42 0 -65 c0
-46 3 -61 11 -53 7 7 21 8 42 2 18 -5 51 -9 75 -9 58 0 102 41 102 95 0 44
-29 75 -119 124 -69 39 -85 68 -56 101 20 22 65 26 97 9 11 -6 28 -29 39 -52
l19 -42 0 64 c0 54 -2 62 -14 52 -11 -9 -20 -9 -35 -2 -37 20 -97 13 -130 -15z"/>
<path d="M8073 1254 l27 -15 0 -149 0 -149 -27 -16 c-26 -15 -21 -16 88 -12
100 4 123 8 160 28 102 57 113 220 19 291 -31 23 -120 38 -220 38 -72 -1 -74
-1 -47 -16z m169 -14 c76 -21 121 -114 98 -200 -20 -74 -97 -123 -165 -106
l-25 6 0 149 c0 147 0 150 23 154 12 2 24 5 27 6 3 0 22 -4 42 -9z"/>
<path d="M8507 1258 c29 -14 33 -34 33 -168 0 -134 -4 -154 -33 -168 -17 -8
12 -11 115 -11 l136 -1 15 45 c17 49 9 61 -13 20 -16 -30 -68 -48 -125 -43
l-40 3 -3 78 -3 77 48 0 c53 0 64 -5 81 -35 9 -16 11 -9 12 45 0 59 -1 63 -13
40 -11 -22 -20 -25 -70 -28 l-57 -3 0 71 0 70 58 0 c59 0 81 -10 100 -45 10
-17 11 -14 12 23 l0 42 -137 -1 c-104 0 -133 -3 -116 -11z"/>
<path d="M9063 1254 l28 -15 -3 -152 c-3 -150 -3 -152 -28 -164 -22 -11 -16
-13 55 -13 65 1 76 3 60 12 -11 6 -23 16 -27 22 -4 6 -8 72 -8 146 0 74 4 140
8 146 4 6 16 16 27 22 16 9 5 11 -60 11 -77 0 -79 0 -52 -15z"/>
<path d="M9255 1260 c3 -5 12 -10 19 -10 7 0 20 -8 29 -18 14 -15 17 -41 17
-148 0 -135 -2 -143 -35 -162 -16 -9 -9 -11 45 -11 63 0 64 0 38 15 l-28 15 0
119 c0 66 2 120 4 120 3 0 55 -61 118 -136 l113 -137 5 166 c3 91 7 167 10
170 3 2 14 9 25 15 16 9 8 11 -45 11 -63 0 -64 0 -37 -15 l27 -15 0 -116 c0
-99 -2 -115 -14 -103 -7 8 -57 68 -110 133 l-97 117 -45 0 c-28 0 -43 -4 -39
-10z"/>
<path d="M9700 1261 c0 -5 7 -11 17 -13 10 -2 42 -61 89 -168 40 -90 76 -166
81 -167 5 -2 15 14 22 34 42 116 123 290 143 305 23 17 22 18 -34 18 -32 0
-58 -4 -58 -10 0 -5 6 -10 14 -10 8 0 17 -4 21 -9 6 -11 -83 -241 -95 -241 -9
0 -100 213 -100 235 0 8 6 15 14 15 8 0 18 5 21 10 4 6 -20 10 -64 10 -39 0
-71 -4 -71 -9z"/>
<path d="M10158 1258 c21 -11 22 -15 22 -168 0 -153 -1 -157 -22 -168 -18 -8
8 -11 113 -11 l136 -1 11 39 c17 54 16 55 -16 20 -24 -27 -37 -33 -85 -37 -78
-6 -87 3 -87 89 l0 69 49 0 c58 0 81 -7 81 -25 0 -8 5 -17 10 -20 6 -4 10 17
10 57 -1 62 -1 62 -16 36 -13 -26 -19 -28 -75 -28 l-60 0 3 68 3 67 40 3 c65
6 103 -6 120 -36 l15 -27 -2 40 -3 40 -135 2 c-104 2 -130 -1 -112 -9z"/>
<path d="M10525 1259 c11 -7 23 -17 27 -23 4 -6 8 -72 8 -146 0 -74 -4 -140
-8 -146 -4 -6 -16 -16 -27 -22 -16 -9 -5 -11 60 -11 66 0 75 2 53 11 -27 9
-28 12 -28 84 0 100 17 98 95 -11 l60 -85 48 0 c54 0 60 7 17 21 -18 7 -48 36
-80 79 -55 74 -57 80 -35 80 27 0 65 47 65 79 0 72 -34 91 -174 98 -83 3 -97
2 -81 -8z m178 -37 c19 -17 23 -63 7 -92 -9 -16 -64 -40 -92 -40 -5 0 -8 33
-8 74 0 63 3 75 18 79 23 6 53 -2 75 -21z"/>
<path d="M10977 1259 c-11 -6 -25 -27 -33 -45 -21 -51 1 -91 74 -134 77 -45
102 -69 102 -96 0 -33 -26 -54 -69 -54 -47 0 -87 30 -100 73 -8 28 -9 24 -10
-33 -1 -46 2 -61 10 -53 7 7 21 8 42 2 18 -5 51 -9 75 -9 35 0 49 6 73 29 53
54 32 120 -53 166 -91 49 -108 64 -108 95 0 33 23 50 68 50 33 0 82 -42 82
-71 0 -10 5 -21 10 -24 6 -4 10 17 10 54 0 56 -10 76 -25 51 -4 -6 -15 -6 -31
0 -33 13 -94 12 -117 -1z"/>
<path d="M11283 1254 l27 -15 0 -149 0 -149 -27 -15 c-27 -15 -25 -15 52 -15
77 0 79 0 53 15 l-28 15 0 149 0 149 28 15 c26 15 24 15 -53 15 -77 0 -79 0
-52 -15z"/>
<path d="M11580 1249 c-107 -62 -120 -232 -23 -306 41 -31 126 -43 173 -23 69
29 118 123 105 201 -21 121 -153 187 -255 128z m141 -12 c69 -54 77 -222 13
-282 -55 -51 -132 -34 -164 37 -36 80 -16 216 37 247 24 14 94 13 114 -2z"/>
<path d="M11905 1260 c3 -5 12 -10 19 -10 7 0 20 -8 29 -18 14 -15 17 -42 17
-155 l0 -136 -27 -15 c-27 -15 -26 -15 37 -15 63 0 64 0 38 15 l-28 15 0 120
c0 72 4 118 9 114 5 -3 58 -65 118 -137 l108 -131 5 166 c3 91 7 167 10 170 3
2 14 9 25 15 16 9 8 11 -45 11 -63 0 -64 0 -37 -15 l27 -15 0 -116 c0 -68 -4
-113 -9 -107 -5 5 -54 64 -110 132 l-101 122 -46 0 c-27 0 -43 -4 -39 -10z"/>
</g>
</svg>
